<svg width="223" height="36" viewBox="0 0 223 36" fill="none" xmlns="http://www.w3.org/2000/svg">
  <g clip-path="url(#clip0_9783_8806)">
    <path fill-rule="evenodd" clip-rule="evenodd" d="M10.6346 19.6853L16.4491 28.4152C16.6509 28.734 16.9156 29.0106 17.2279 29.2289C17.5403 29.4471 17.8939 29.6027 18.2684 29.6867C18.6429 29.7706 19.0308 29.7811 19.4095 29.7178C19.7882 29.6543 20.1502 29.5183 20.4746 29.3173C20.7989 29.1164 21.079 28.8547 21.2988 28.5473C21.5186 28.24 21.6736 27.8931 21.7548 27.527C21.836 27.1608 21.8417 26.7825 21.7718 26.414C21.7019 26.0456 21.5576 25.6944 21.3474 25.3808L14.3577 14.8862C14.2614 14.7413 14.1518 14.6053 14.0303 14.4796L21.0104 3.76874L38.1871 30.1206C38.5501 30.6543 38.7703 31.2681 38.8276 31.9059C38.885 32.5438 38.7777 33.1856 38.5157 33.7727C38.2076 34.4359 37.7103 34.9986 37.0833 35.3938C36.4562 35.789 35.7258 35.9998 34.9792 36.0012H-0.00143433L10.6346 19.6853Z" fill="white"/>
    <path fill-rule="evenodd" clip-rule="evenodd" d="M42.0749 28.5377L23.4722 0L21.8437 2.49574L39.3948 29.4165C39.5719 29.679 39.7226 29.9576 39.8449 30.2484C40.1147 30.8828 40.2524 31.5633 40.2496 32.2502C40.2468 32.937 40.1038 33.6164 39.8288 34.2488L40.3834 34.0086C40.5571 33.9328 40.725 33.8449 40.8857 33.7455C41.3145 33.48 41.6854 33.1347 41.9773 32.7293C42.2691 32.324 42.4763 31.8665 42.5868 31.3831C42.6973 30.8997 42.7091 30.3998 42.6214 29.9119C42.5338 29.424 42.3484 28.9578 42.0759 28.5398" fill="white"/>
    <path fill-rule="evenodd" clip-rule="evenodd" d="M8.45715 12.9945C8.98224 12.6609 9.59697 12.4867 10.2237 12.494C10.8503 12.5013 11.4606 12.6898 11.9774 13.0355C12.4941 13.3813 12.894 13.8688 13.1264 14.4363C13.3589 15.0038 13.4133 15.6258 13.283 16.2235C13.1526 16.8213 12.8432 17.3678 12.3941 17.794C11.945 18.2202 11.3762 18.5067 10.7599 18.6175C10.1435 18.7283 9.5074 18.6583 8.93188 18.4163C8.35644 18.1743 7.86753 17.7712 7.5272 17.2581C7.07292 16.5719 6.91575 15.7382 7.09002 14.9393C7.26427 14.1403 7.75581 13.4412 8.45715 12.9945Z" fill="white"/>
    <path d="M61.1928 10.0048V20.1291C61.1314 21.2985 61.4825 22.4531 62.1878 23.4006C63.0734 24.1909 64.2311 24.628 65.4316 24.6255C66.632 24.6231 67.7878 24.1811 68.6699 23.3871C69.3971 22.4536 69.7641 21.3001 69.7065 20.1291V10.0048H72.4708V20.3985C72.5459 21.3071 72.4274 22.221 72.1229 23.0828C71.8185 23.9447 71.3345 24.7358 70.7015 25.4066C69.1696 26.4768 67.3319 27.0511 65.4474 27.0487C63.563 27.0462 61.7267 26.4672 60.1977 25.3931C59.5592 24.7283 59.0697 23.9412 58.7603 23.0818C58.4509 22.2224 58.3284 21.3096 58.4007 20.4016V10.0048H61.1928Z" fill="white"/>
    <path d="M75.9263 9.35895L86.7632 19.5094C86.8548 19.5998 86.9382 19.6851 87.0114 19.7652C87.0852 19.8452 87.1686 19.9316 87.2602 20.021C87.371 20.1291 87.4773 20.2415 87.5799 20.3579C87.6863 20.4744 87.7933 20.5961 87.8997 20.7208C88.0281 20.8466 88.1529 20.9818 88.2718 21.1253C88.3914 21.2688 88.5162 21.4123 88.6455 21.5559V10.0047H91.1878V27.2908L80.1286 16.9523C79.8192 16.6695 79.5283 16.368 79.258 16.0496C78.99 15.7356 78.7271 15.408 78.4702 15.067V26.6711H75.9263V9.35895Z" fill="white"/>
    <path d="M94.7787 10.0048H97.5714V26.6711H94.7787V10.0048Z" fill="white"/>
    <path d="M112.443 12.6305C111.572 12.2977 110.643 12.1287 109.706 12.1324C109.485 12.1324 109.26 12.1418 109.029 12.1594C108.799 12.1771 108.554 12.2041 108.297 12.2395C107.582 12.3415 106.897 12.5839 106.281 12.9519C105.666 13.32 105.133 13.8061 104.716 14.3806C103.906 15.4595 103.44 16.7471 103.376 18.0827V18.7066C103.454 19.9397 103.869 21.1301 104.578 22.1538C105.314 23.2366 106.429 24.0212 107.716 24.3616C107.863 24.3979 108.011 24.4281 108.158 24.4552C108.305 24.4822 108.462 24.5144 108.628 24.5498L109.071 24.6038C109.218 24.6216 109.365 24.6307 109.512 24.6308C110.502 24.6308 111.479 24.4178 112.374 24.007C113.285 23.5949 114.145 23.0797 114.934 22.4721V25.5418C114.385 25.8985 113.796 26.1921 113.179 26.4164C112.574 26.6383 111.949 26.805 111.312 26.9145C111.018 26.9512 110.723 26.9828 110.429 27.0091C110.134 27.0354 109.85 27.049 109.576 27.0497C107.391 27.0528 105.272 26.3204 103.576 24.9761C102.677 24.2811 101.939 23.4083 101.41 22.4153C100.881 21.4222 100.574 20.3312 100.508 19.2141V18.7836C100.489 18.7227 100.479 18.6591 100.481 18.5954V18.3801C100.464 16.6406 100.988 14.9371 101.982 13.4926C102.692 12.424 103.643 11.5277 104.763 10.8719C105.882 10.2161 107.14 9.81813 108.442 9.7084C108.498 9.70855 108.553 9.70408 108.608 9.69494C108.653 9.68666 108.699 9.68212 108.746 9.6814C108.907 9.66384 109.068 9.65484 109.23 9.65433H109.656C110.606 9.64987 111.549 9.79992 112.449 10.0984C113.371 10.4116 114.253 10.8305 115.074 11.3463L114.936 14.0656C114.186 13.4644 113.345 12.9803 112.443 12.6305Z" fill="white"/>
    <path d="M132.083 25.6488C130.566 26.5604 128.819 27.0449 127.038 27.0485C126.89 27.0485 126.747 27.0485 126.611 27.035C126.474 27.0215 126.329 27.0122 126.184 26.9944C125.595 26.9402 125.013 26.8358 124.443 26.6825C123.868 26.5295 123.312 26.3175 122.784 26.0502C121.312 25.2961 120.082 24.1591 119.232 22.7652C118.39 21.4182 117.946 19.8711 117.946 18.2937C117.947 18.0418 117.96 17.7902 117.988 17.5398C118.076 16.8386 118.238 16.1483 118.471 15.4797C118.632 15.0541 118.817 14.6375 119.025 14.2319C119.813 12.8014 121.008 11.6234 122.466 10.8397C123.879 10.0634 125.474 9.65541 127.096 9.65533C127.373 9.65533 127.657 9.6688 127.95 9.69587C128.235 9.72114 128.52 9.76139 128.802 9.81647C129.395 9.92541 129.978 10.083 130.544 10.2876C131.107 10.491 131.644 10.7577 132.144 11.082C133.407 11.8811 134.432 12.9909 135.115 14.2995C135.811 15.5812 136.177 17.0087 136.181 18.459C136.182 19.0107 136.126 19.5611 136.015 20.102C135.904 20.6432 135.747 21.1743 135.546 21.69C134.871 23.3458 133.653 24.7378 132.083 25.6488ZM130.884 23.3018C131.642 22.7122 132.255 21.9634 132.675 21.111C133.096 20.2586 133.313 19.3248 133.313 18.3789C133.321 17.5649 133.163 16.7573 132.848 16.0036C132.532 15.2498 132.065 14.5651 131.475 13.9896C130.91 13.3945 130.222 12.9217 129.458 12.6018C128.694 12.2818 127.869 12.1219 127.038 12.1324H126.457C125.671 12.2034 124.907 12.4299 124.214 12.7978C123.52 13.1657 122.91 13.6674 122.422 14.2724C121.393 15.437 120.825 16.922 120.822 18.459C120.822 18.549 120.826 18.6388 120.836 18.7283C120.845 18.8188 120.859 18.9083 120.877 18.9977C120.877 19.0476 120.881 19.0974 120.891 19.1464C120.901 19.195 120.906 19.2445 120.905 19.294C120.921 19.3429 120.935 19.3925 120.946 19.4428C120.955 19.4824 120.96 19.5228 120.96 19.5634C121.244 20.9631 122.016 22.2239 123.145 23.1313C123.869 23.7445 124.732 24.1823 125.662 24.4089C126.592 24.6355 127.565 24.6445 128.5 24.4353C129.382 24.2656 130.204 23.875 130.884 23.3018Z" fill="white"/>
    <path d="M139.588 9.35895L150.425 19.5094C150.517 19.5998 150.6 19.6851 150.673 19.7652C150.747 19.8452 150.829 19.9316 150.922 20.021C151.033 20.1291 151.139 20.2415 151.242 20.3579C151.348 20.4744 151.449 20.5961 151.562 20.7208C151.691 20.8466 151.814 20.9818 151.935 21.1253C152.056 21.2688 152.179 21.4123 152.308 21.5559V10.0047H154.852V27.2908L143.794 16.9523C143.485 16.6695 143.194 16.368 142.923 16.0496C142.655 15.7356 142.393 15.408 142.135 15.067V26.6711H139.593L139.588 9.35895Z" fill="white"/>
    <path d="M165.614 22.293C165.766 22.8241 166.045 23.3121 166.43 23.7166C166.832 24.1232 167.361 24.388 167.935 24.4695L168.042 24.4955C168.078 24.5009 168.114 24.5099 168.149 24.5225C168.255 24.5402 168.374 24.5589 168.494 24.5766C168.618 24.5948 168.742 24.6038 168.867 24.6036H169.061C169.126 24.6046 169.192 24.5955 169.255 24.5766C169.625 24.5405 169.987 24.4406 170.321 24.2813C170.649 24.1313 170.93 23.8996 171.137 23.6095C171.232 23.4421 171.315 23.2684 171.385 23.0895C171.459 22.904 171.505 22.7094 171.524 22.5114C171.541 22.4639 171.55 22.414 171.552 22.3637V22.2118C171.552 22.1267 171.548 22.0417 171.538 21.9571C171.528 21.8767 171.514 21.7914 171.497 21.7013C171.48 21.5652 171.452 21.4306 171.413 21.2989C171.378 21.1745 171.322 21.0566 171.248 20.9495C171.035 20.6171 170.742 20.3405 170.395 20.1435C169.998 19.9055 169.582 19.699 169.151 19.5258C168.855 19.3823 168.56 19.2524 168.266 19.1359C167.999 19.0333 167.741 18.9123 167.493 18.774C167.473 18.7741 167.455 18.7695 167.438 18.7605C167.417 18.75 167.398 18.7363 167.381 18.7199C166.583 18.3035 165.836 17.7986 165.156 17.2152C164.466 16.6266 164.019 15.8135 163.898 14.9275C163.887 14.8609 163.881 14.8151 163.872 14.7517C163.862 14.6883 163.85 14.6477 163.843 14.5801C163.837 14.5125 163.83 14.4626 163.824 14.3992C163.819 14.3358 163.816 14.2817 163.816 14.2276C163.816 14.1236 163.816 14.0082 163.829 13.8907C163.843 13.7732 163.853 13.6536 163.871 13.5278C163.947 13.0905 164.081 12.665 164.272 12.2622C164.454 11.8664 164.702 11.5024 165.004 11.1849C165.455 10.7007 166.012 10.3233 166.635 10.0816C167.287 9.81503 167.977 9.65173 168.682 9.59802H169.263C169.335 9.59802 169.375 9.60421 169.49 9.61048C170.414 9.6675 171.311 9.93498 172.109 10.3915C172.925 10.8338 173.552 11.545 173.879 12.3974L171.745 13.5017C171.46 13.0632 171.089 12.6834 170.654 12.3838C170.217 12.0999 169.701 11.9546 169.176 11.9679H169.092C168.484 11.9716 167.901 12.2028 167.462 12.6137C167.051 12.9686 166.786 13.4566 166.715 13.9874V14.1486C166.715 14.2115 166.721 14.2744 166.729 14.3368C166.736 14.4011 166.75 14.4646 166.771 14.5261C166.81 14.7676 166.904 14.9974 167.047 15.1988C167.197 15.4166 167.384 15.6079 167.599 15.7645C167.971 16.0888 168.385 16.3639 168.83 16.583C169.281 16.8076 169.738 17.0093 170.198 17.1882L170.281 17.2276L170.364 17.2683C170.713 17.4118 171.059 17.5594 171.401 17.7112C171.733 17.8575 172.052 18.0315 172.354 18.2312C172.926 18.6075 173.403 19.1052 173.749 19.687C174.08 20.2284 174.291 20.8302 174.373 21.4548C174.39 21.5588 174.404 21.6701 174.414 21.7772C174.424 21.8843 174.428 21.9925 174.428 22.0996C174.426 23.0735 174.133 24.0256 173.584 24.8397C173.025 25.6969 172.181 26.3414 171.193 26.6658C171.008 26.7198 170.815 26.7697 170.613 26.8269C170.413 26.8785 170.21 26.9133 170.004 26.9309C169.783 26.9663 169.57 26.9933 169.364 27.012C169.162 27.0297 168.968 27.038 168.784 27.038C167.592 27.0461 166.421 26.7213 165.412 26.1021C164.369 25.4621 163.626 24.4499 163.339 23.2819L165.614 22.293Z" fill="white"/>
    <path d="M191.031 25.6477C189.514 26.5598 187.768 27.0443 185.986 27.0474C185.838 27.0474 185.696 27.0474 185.56 27.035C185.423 27.0225 185.278 27.0121 185.133 26.9944C184.544 26.9395 183.962 26.8351 183.392 26.6825C182.817 26.5286 182.262 26.3163 181.733 26.0491C180.261 25.2954 179.031 24.1587 178.181 22.7651C177.339 21.4181 176.894 19.871 176.896 18.2937C176.896 18.0418 176.909 17.7902 176.937 17.5397C176.965 17.2865 177.007 17.0348 177.062 16.7858C177.139 16.3404 177.258 15.903 177.42 15.4797C177.581 15.0542 177.766 14.6376 177.974 14.2319C178.762 12.8013 179.957 11.6234 181.415 10.8397C182.828 10.0626 184.423 9.65431 186.046 9.65424C186.322 9.65424 186.607 9.66777 186.899 9.69477C187.186 9.72105 187.47 9.76166 187.752 9.81645C188.346 9.92503 188.928 10.0826 189.494 10.2875C190.057 10.4907 190.594 10.7573 191.093 11.082C192.357 11.8808 193.382 12.9906 194.065 14.2995C194.761 15.5811 195.127 17.0087 195.131 18.459C195.132 19.0103 195.076 19.5603 194.966 20.101C194.854 20.6424 194.697 21.1738 194.496 21.6899C193.821 23.3462 192.603 24.7379 191.031 25.6477ZM189.837 23.3008C190.596 22.7114 191.208 21.9626 191.629 21.1102C192.05 20.2578 192.268 19.3238 192.267 18.3779C192.275 17.5639 192.117 16.7564 191.801 16.0028C191.486 15.2492 191.019 14.5647 190.428 13.9896C189.863 13.3942 189.176 12.9212 188.412 12.6011C187.648 12.281 186.823 12.121 185.992 12.1313H185.411C184.623 12.2027 183.859 12.4299 183.164 12.7989C182.469 13.1679 181.859 13.671 181.369 14.2776C180.341 15.4421 179.773 16.9272 179.77 18.4642C179.77 18.5542 179.774 18.644 179.784 18.7335C179.792 18.824 179.806 18.9139 179.825 19.0029C179.824 19.0524 179.829 19.1019 179.839 19.1505C179.848 19.1996 179.853 19.2493 179.853 19.2992C179.869 19.3477 179.883 19.3969 179.895 19.4469C179.903 19.487 179.907 19.5277 179.907 19.5686C180.191 20.9678 180.963 22.2281 182.091 23.1354C182.816 23.7485 183.678 24.1862 184.609 24.4129C185.539 24.6397 186.511 24.6492 187.446 24.4404C188.332 24.2708 189.156 23.8778 189.837 23.3008Z" fill="white"/>
    <path d="M198.399 10.0048H207.935V12.3466H201.163V16.4667H207.935V18.8095H201.163V26.6711H198.399V10.0048Z" fill="white"/>
    <path d="M218.39 26.6711H215.598V12.3466H211.06V10.0048H222.898V12.3466H218.392L218.39 26.6711Z" fill="white"/>
  </g>
  <defs>
    <clipPath id="clip0_9783_8806">
      <rect width="223" height="36" fill="white"/>
    </clipPath>
  </defs>
</svg>
